<?xml version="1.0" encoding="UTF-8"?> <svg xmlns="http://www.w3.org/2000/svg" width="36" height="37" viewBox="0 0 36 37" fill="none"><g clip-path="url(#clip0_917_390)"><path d="M2.55022 27.9908C1.11775 27.9995 0.0585938 29.2007 0.0585938 30.7038C0.0585938 32.2969 1.21556 33.4082 2.56762 33.4082C3.91977 33.4082 4.9551 32.1581 4.9551 30.7038C4.9551 29.2322 3.90237 27.9826 2.55022 27.9908ZM2.78029 32.3751C1.93399 32.3751 1.24796 31.6288 1.24796 30.7082C1.24796 29.6924 1.93399 29.0413 2.78029 29.0413C3.65284 29.0413 4.31263 29.7875 4.31263 30.7082C4.31263 31.6288 3.6266 32.3751 2.78029 32.3751Z" fill="black"></path><path d="M4.21484 28.1123V29.8002H4.5969V31.5987H4.21484V32.9958C4.21484 33.1708 4.36067 33.3127 4.54041 33.3127H5.36958V28.1123H4.21484ZM14.7454 27.9908C13.3129 27.9995 12.2538 29.2007 12.2538 30.7038C12.2538 32.2969 13.4107 33.4082 14.7628 33.4082C16.1149 33.4082 17.1503 32.1581 17.1503 30.7038C17.1503 29.2322 16.0974 27.9826 14.7454 27.9908ZM14.9754 32.3751C14.1291 32.3751 13.443 31.6288 13.443 30.7082C13.443 29.6924 14.1291 29.0413 14.9754 29.0413C15.8479 29.0413 16.5077 29.7875 16.5077 30.7082C16.5077 31.6288 15.8217 32.3751 14.9754 32.3751Z" fill="black"></path><path d="M16.4141 25.485V29.8003H16.7961V31.5988H16.4141V32.9959C16.4141 33.1709 16.5599 33.3128 16.7396 33.3128H17.5688V25.4849L16.4141 25.485ZM33.1079 27.9909C31.6754 27.9996 30.6162 29.2008 30.6162 30.7039C30.6162 32.297 31.7732 33.4083 33.1252 33.4083C34.4773 33.4083 35.5127 32.1581 35.5127 30.7039C35.5127 29.2323 34.4601 27.9826 33.1079 27.9909ZM33.3379 32.3752C32.4916 32.3752 31.8056 31.6289 31.8056 30.7083C31.8056 29.6925 32.4916 29.0414 33.3379 29.0414C34.2104 29.0414 34.8703 29.7876 34.8703 30.7083C34.8703 31.6289 34.1843 32.3752 33.3379 32.3752Z" fill="black"></path><path d="M34.7739 25.485V29.8003H35.156V31.5988H34.7739V32.9959C34.7739 33.1709 34.9198 33.3128 35.0995 33.3128H35.9287V25.4849L34.7739 25.485ZM28.551 31.5989V32.996C28.551 33.171 28.6969 33.3129 28.8765 33.3129H29.7057V28.1114H28.551V29.8004V31.5989ZM6.65625 31.5989V32.996C6.65625 33.171 6.80216 33.3129 6.98181 33.3129H7.81099V28.1114H6.65625V29.8004V31.5989Z" fill="black"></path><path d="M9.38715 27.9896C9.38715 27.9896 8.19261 27.9434 7.74219 28.8936V30.6374L7.80609 30.8235C7.77985 28.9934 9.1096 29.0399 9.1096 29.0399C9.87434 29.0399 10.1027 29.6373 10.1698 29.9502C10.1698 29.9502 10.1992 30.0755 10.1972 30.3195V32.9959C10.1972 33.1709 10.3431 33.3128 10.5228 33.3128H11.352V29.9533C11.352 29.9533 11.3714 27.9896 9.38715 27.9896ZM18.8516 31.5988V32.9959C18.8516 33.1709 18.9975 33.3128 19.1771 33.3128H20.0063V28.1114H18.8516V29.8003V31.5988Z" fill="black"></path><path d="M29.1133 26.9873C29.5426 26.9873 29.8906 26.6405 29.8906 26.2126C29.8906 25.7848 29.5426 25.438 29.1133 25.438C28.684 25.438 28.3359 25.7848 28.3359 26.2126C28.3359 26.6405 28.684 26.9873 29.1133 26.9873Z" fill="black"></path><path d="M24.9017 27.9768C23.3861 27.9768 22.177 29.1758 22.177 30.6791C22.177 32.1825 23.2953 33.4207 24.9017 33.4207C26.5082 33.4207 27.646 32.2021 27.646 30.6988C27.646 29.1954 26.4174 27.9768 24.9017 27.9768ZM24.9074 32.3386C24.0479 32.3386 23.3511 31.607 23.3511 30.7044C23.3511 29.8018 24.0479 29.0701 24.9074 29.0701C25.7668 29.0701 26.4636 29.8018 26.4636 30.7044C26.4636 31.607 25.7667 32.3386 24.9074 32.3386ZM19.9375 29.2039C20.3503 27.7314 21.8228 28.0772 21.8228 28.0772V29.2792C21.8228 29.2792 20.0923 28.6943 20.0086 30.7991L19.9375 29.2039Z" fill="black"></path><path d="M10.8745 8.5139C11.0221 8.77012 10.9113 9.11068 10.6272 9.27436C10.3428 9.43794 9.99274 9.36289 9.84504 9.10658L6.327 2.99678C6.17957 2.74047 6.22901 2.32745 6.51335 2.16377C6.79768 2.0001 7.20892 2.14771 7.35644 2.40402L10.8745 8.5139ZM25.1695 8.5139C25.0221 8.77012 25.1328 9.11068 25.417 9.27436C25.7014 9.43794 26.0513 9.36289 26.199 9.10658L29.717 2.99678C29.8645 2.74047 29.815 2.32745 29.5307 2.16377C29.2464 2.0001 28.8352 2.14771 28.6877 2.40402L25.1695 8.5139Z" fill="black"></path><path d="M18.0273 5.96704C8.54175 5.96704 0.774497 13.0924 0.113281 22.1204H35.9413C35.2802 13.0924 27.513 5.96704 18.0273 5.96704ZM9.78519 17.1617C8.94763 17.1617 8.26875 16.4829 8.26875 15.6453C8.26875 14.8077 8.94763 14.1288 9.78519 14.1288C10.6228 14.1288 11.3016 14.8077 11.3016 15.6453C11.3016 16.4829 10.6228 17.1617 9.78519 17.1617ZM26.2373 17.1617C25.3997 17.1617 24.7209 16.4829 24.7209 15.6453C24.7209 14.8077 25.3997 14.1288 26.2373 14.1288C27.0749 14.1288 27.7538 14.8077 27.7538 15.6453C27.7538 16.4829 27.0749 17.1617 26.2373 17.1617Z" fill="black"></path></g><defs><clipPath id="clip0_917_390"><rect width="36" height="31.4208" fill="white" transform="translate(0 2)"></rect></clipPath></defs></svg> 