<?xml version="1.0" encoding="UTF-8"?> <svg xmlns="http://www.w3.org/2000/svg" width="36" height="37" viewBox="0 0 36 37" fill="none"><path d="M10.1449 14.8185C10.1449 15.2615 10.1928 15.6207 10.2766 15.8841C10.3724 16.1475 10.4921 16.4349 10.6598 16.7462C10.7196 16.842 10.7436 16.9378 10.7436 17.0216C10.7436 17.1413 10.6717 17.2611 10.5161 17.3808L9.76178 17.8837C9.65402 17.9555 9.54626 17.9914 9.45047 17.9914C9.33074 17.9914 9.21101 17.9316 9.09128 17.8238C8.92365 17.6442 8.77997 17.4526 8.66024 17.2611C8.54051 17.0575 8.42078 16.83 8.28907 16.5546C7.35516 17.6562 6.18178 18.2069 4.76894 18.2069C3.76319 18.2069 2.96099 17.9196 2.3743 17.3449C1.78761 16.7701 1.48828 16.0039 1.48828 15.046C1.48828 14.0283 1.84748 13.2021 2.57784 12.5795C3.30821 11.9569 4.27804 11.6456 5.51128 11.6456C5.91837 11.6456 6.33744 11.6815 6.78044 11.7414C7.22345 11.8013 7.67844 11.897 8.15737 12.0048V11.1308C8.15737 10.2208 7.96579 9.58622 7.59462 9.21505C7.21148 8.84388 6.56493 8.66428 5.64299 8.66428C5.22393 8.66428 4.79289 8.71217 4.34988 8.81993C3.90687 8.92769 3.47584 9.05939 3.05677 9.22702C2.8652 9.31083 2.72152 9.35872 2.63771 9.38267C2.5539 9.40662 2.49403 9.41859 2.44614 9.41859C2.27851 9.41859 2.1947 9.29886 2.1947 9.04742V8.46073C2.1947 8.26916 2.21865 8.12548 2.27851 8.04167C2.33838 7.95786 2.44614 7.87405 2.61376 7.79023C3.03283 7.57471 3.5357 7.39512 4.12239 7.25144C4.70908 7.09579 5.33168 7.02395 5.99021 7.02395C7.41502 7.02395 8.4567 7.34722 9.1272 7.99378C9.78572 8.64033 10.121 9.62214 10.121 10.9392V14.8185H10.1449ZM5.28379 16.6384C5.67891 16.6384 6.086 16.5666 6.51703 16.4229C6.94807 16.2792 7.33121 16.0158 7.65449 15.6566C7.84606 15.4291 7.98974 15.1777 8.06158 14.8904C8.13342 14.603 8.18131 14.2558 8.18131 13.8487V13.3458C7.83409 13.262 7.46292 13.1902 7.07977 13.1423C6.69663 13.0944 6.32546 13.0704 5.95429 13.0704C5.15209 13.0704 4.5654 13.2261 4.17028 13.5494C3.77517 13.8726 3.58359 14.3276 3.58359 14.9263C3.58359 15.489 3.72727 15.9081 4.0266 16.1954C4.31396 16.4948 4.73302 16.6384 5.28379 16.6384ZM14.8983 17.9316C14.6828 17.9316 14.5391 17.8956 14.4433 17.8118C14.3475 17.74 14.2637 17.5724 14.1919 17.3449L11.3782 8.08956C11.3063 7.8501 11.2704 7.69445 11.2704 7.61063C11.2704 7.41906 11.3662 7.3113 11.5578 7.3113H12.7311C12.9586 7.3113 13.1143 7.34722 13.1981 7.43104C13.2939 7.50288 13.3657 7.6705 13.4376 7.89799L15.4491 15.8243L17.3169 7.89799C17.3767 7.65853 17.4486 7.50288 17.5444 7.43104C17.6402 7.3592 17.8078 7.3113 18.0233 7.3113H18.9812C19.2086 7.3113 19.3643 7.34722 19.4601 7.43104C19.5559 7.50288 19.6397 7.6705 19.6876 7.89799L21.5793 15.92L23.6507 7.89799C23.7225 7.65853 23.8064 7.50288 23.8902 7.43104C23.986 7.3592 24.1416 7.3113 24.3571 7.3113H25.4706C25.6622 7.3113 25.77 7.40709 25.77 7.61063C25.77 7.6705 25.758 7.73037 25.746 7.80221C25.7341 7.87405 25.7101 7.96983 25.6622 8.10154L22.7767 17.3568C22.7048 17.5963 22.621 17.752 22.5252 17.8238C22.4294 17.8956 22.2738 17.9435 22.0702 17.9435H21.0405C20.8131 17.9435 20.6574 17.9076 20.5616 17.8238C20.4658 17.74 20.382 17.5843 20.3341 17.3449L18.4783 9.62214L16.6344 17.3329C16.5745 17.5724 16.5027 17.728 16.4069 17.8118C16.3111 17.8956 16.1435 17.9316 15.928 17.9316H14.8983ZM30.2839 18.2548C29.6613 18.2548 29.0387 18.183 28.44 18.0393C27.8413 17.8956 27.3744 17.74 27.0631 17.5604C26.8715 17.4526 26.7398 17.3329 26.6919 17.2251C26.644 17.1174 26.6201 16.9976 26.6201 16.8899V16.2792C26.6201 16.0278 26.7159 15.9081 26.8955 15.9081C26.9673 15.9081 27.0391 15.9201 27.111 15.944C27.1828 15.9679 27.2906 16.0158 27.4103 16.0637C27.8174 16.2433 28.2604 16.387 28.7274 16.4828C29.2063 16.5786 29.6732 16.6265 30.1522 16.6265C30.9065 16.6265 31.4932 16.4948 31.9003 16.2314C32.3073 15.9679 32.5229 15.5848 32.5229 15.0939C32.5229 14.7586 32.4151 14.4833 32.1996 14.2558C31.9841 14.0283 31.577 13.8247 30.9903 13.6332L29.2542 13.0944C28.3801 12.819 27.7336 12.4119 27.3385 11.8731C26.9433 11.3463 26.7398 10.7596 26.7398 10.137C26.7398 9.63411 26.8476 9.1911 27.0631 8.80796C27.2786 8.42481 27.566 8.08956 27.9251 7.82615C28.2843 7.55077 28.6914 7.34722 29.1704 7.20354C29.6493 7.05987 30.1522 7 30.679 7C30.9424 7 31.2178 7.01197 31.4812 7.04789C31.7566 7.08381 32.008 7.13171 32.2595 7.1796C32.4989 7.23946 32.7264 7.29933 32.9419 7.37117C33.1574 7.44301 33.3251 7.51485 33.4448 7.58669C33.6124 7.68247 33.7322 7.77826 33.804 7.88602C33.8758 7.9818 33.9118 8.11351 33.9118 8.28113V8.84388C33.9118 9.09531 33.816 9.22702 33.6364 9.22702C33.5406 9.22702 33.3849 9.17913 33.1814 9.08334C32.4989 8.77204 31.7326 8.61638 30.8825 8.61638C30.2001 8.61638 29.6613 8.72414 29.2901 8.95163C28.9189 9.17913 28.7274 9.52635 28.7274 10.0173C28.7274 10.3525 28.8471 10.6399 29.0866 10.8674C29.326 11.0948 29.769 11.3223 30.4036 11.5259L32.1038 12.0647C32.9659 12.3401 33.5885 12.7232 33.9597 13.2141C34.3308 13.705 34.5104 14.2677 34.5104 14.8904C34.5104 15.4052 34.4027 15.8722 34.1991 16.2792C33.9836 16.6863 33.6962 17.0455 33.3251 17.3329C32.9539 17.6322 32.5109 17.8477 31.996 18.0034C31.4572 18.171 30.8945 18.2548 30.2839 18.2548Z" fill="black"></path><path d="M32.547 24.0738C28.6079 26.9833 22.8847 28.5279 17.9637 28.5279C11.0671 28.5279 4.85299 25.9776 0.159485 21.739C-0.211685 21.4038 0.123566 20.9488 0.566575 21.2122C5.64322 24.1576 11.9052 25.9416 18.3827 25.9416C22.753 25.9416 27.5542 25.0317 31.9723 23.1639C32.6309 22.8645 33.1936 23.5949 32.547 24.0738Z" fill="black"></path><path d="M34.1885 22.2061C33.6856 21.5595 30.8599 21.8948 29.5788 22.0504C29.1956 22.0983 29.1358 21.7631 29.483 21.5116C31.734 19.9312 35.4337 20.3862 35.8647 20.913C36.2958 21.4518 35.745 25.1515 33.6377 26.9235C33.3144 27.1989 33.0031 27.0552 33.1468 26.696C33.6257 25.5107 34.6914 22.8407 34.1885 22.2061Z" fill="black"></path></svg> 