<?xml version="1.0" encoding="UTF-8"?> <svg xmlns="http://www.w3.org/2000/svg" width="36" height="37" viewBox="0 0 36 37" fill="none"><path d="M12.5004 3.4541H22.2647L12.1284 33.4867C12.0243 33.7953 11.8259 34.0635 11.5613 34.2535C11.2967 34.4434 10.9793 34.5456 10.6536 34.5458H3.05455C2.80777 34.5458 2.56455 34.487 2.34494 34.3744C2.12535 34.2618 1.93573 34.0985 1.7918 33.898C1.64789 33.6976 1.55375 33.4657 1.51715 33.2217C1.48059 32.9777 1.50267 32.7284 1.58156 32.4945L11.0252 4.51311C11.1293 4.20438 11.3277 3.93609 11.5923 3.74603C11.857 3.55609 12.1746 3.45398 12.5004 3.4541Z" fill="black"></path><path d="M26.6894 23.5979H11.2057C11.0618 23.5977 10.9211 23.6409 10.802 23.7217C10.683 23.8027 10.5911 23.9176 10.5383 24.0515C10.4854 24.1854 10.4742 24.3321 10.5059 24.4725C10.5377 24.6129 10.611 24.7405 10.7163 24.8386L20.6659 34.1252C20.9556 34.3954 21.337 34.5457 21.7331 34.5457H30.5006L26.6894 23.5979Z" fill="black"></path><path d="M12.5024 3.45411C12.173 3.45285 11.8518 3.55694 11.5858 3.75118C11.3198 3.94542 11.1228 4.21963 11.0237 4.53375L1.5951 32.469C1.5109 32.7037 1.48447 32.9552 1.51804 33.2023C1.55161 33.4494 1.64419 33.6847 1.78795 33.8885C1.93176 34.0921 2.12245 34.2582 2.34393 34.3727C2.5655 34.487 2.81129 34.5464 3.0606 34.5458H10.8557C11.146 34.4938 11.4174 34.3658 11.6421 34.1748C11.8667 33.9838 12.0366 33.7365 12.1345 33.4583L14.0147 27.917L20.731 34.1813C21.0125 34.4141 21.3655 34.5428 21.7307 34.5458H30.4656L26.6347 23.598L15.4667 23.6006L22.3019 3.45411H12.5024Z" fill="url(#paint0_linear_917_397)"></path><path d="M24.9724 4.5116C24.8683 4.20337 24.6702 3.93554 24.4059 3.74581C24.1417 3.55607 23.8246 3.45404 23.4993 3.4541H12.6172C12.9425 3.45412 13.2596 3.55617 13.5238 3.74588C13.7881 3.93559 13.9861 4.2034 14.0902 4.5116L23.5342 32.4942C23.6132 32.728 23.6354 32.9773 23.5988 33.2214C23.5623 33.4655 23.4681 33.6975 23.3241 33.898C23.1802 34.0985 22.9906 34.2619 22.771 34.3746C22.5514 34.4873 22.3081 34.5461 22.0612 34.5462H32.9437C33.1905 34.546 33.4337 34.4871 33.6532 34.3744C33.8728 34.2617 34.0624 34.0983 34.2064 33.8978C34.3502 33.6973 34.4443 33.4654 34.4809 33.2214C34.5174 32.9773 34.4953 32.728 34.4163 32.4942L24.9724 4.5116Z" fill="url(#paint1_linear_917_397)"></path><defs><linearGradient id="paint0_linear_917_397" x1="19.2287" y1="19.719" x2="16.8831" y2="20.5121" gradientUnits="userSpaceOnUse"><stop stop-opacity="0.3"></stop><stop offset="0.071" stop-opacity="0.2"></stop><stop offset="0.321" stop-opacity="0.1"></stop><stop offset="0.623" stop-opacity="0.05"></stop><stop offset="1" stop-opacity="0"></stop></linearGradient><linearGradient id="paint1_linear_917_397" x1="17.9373" y1="4.88436" x2="29.0685" y2="34.5397" gradientUnits="userSpaceOnUse"><stop stop-color="#1C1C1C"></stop><stop offset="1"></stop></linearGradient></defs></svg> 