<?xml version="1.0" encoding="UTF-8"?> <svg xmlns="http://www.w3.org/2000/svg" width="36" height="37" viewBox="0 0 36 37" fill="none"><path d="M14.7183 16.4098V23.7204H15.9887V17.5581H17.4842C17.9328 17.5581 18.3797 17.6148 18.7449 17.9338C19.0315 18.1843 19.185 18.5429 19.185 19.0089C19.185 19.4752 19.0315 19.8336 18.7449 20.0841C18.3264 20.4498 17.7597 20.4599 17.2554 20.4599H17.0318V21.6082C17.638 21.6082 18.2191 21.6202 18.8034 21.4092C18.8906 21.3777 18.9973 21.3351 19.0818 21.295C19.5216 21.0861 19.8588 20.7851 20.0934 20.3921C20.3278 19.9989 20.4451 19.5378 20.4452 19.0089C20.4452 18.4732 20.3279 18.0105 20.0934 17.6207C19.8587 17.2311 19.5215 16.9318 19.0818 16.723C18.7302 16.5561 18.4053 16.4581 17.942 16.4211C17.8233 16.4116 17.6171 16.4098 17.5328 16.4098H14.7183ZM7.79358 18.1362C7.48203 18.7068 7.32627 19.3504 7.32632 20.0671C7.32632 20.784 7.48052 21.4277 7.78891 21.9983C8.09722 22.5689 8.52323 23.0159 9.06696 23.3395C9.61059 23.6631 10.2194 23.8249 10.8934 23.8249C11.4402 23.8249 11.9409 23.7205 12.3956 23.5118C12.8502 23.303 13.2333 23.0004 13.545 22.6037L12.7437 21.7686C12.2604 22.3463 11.6659 22.6351 10.9602 22.6351C10.5024 22.6351 10.0923 22.5254 9.72981 22.3061C9.37731 22.0978 9.08326 21.7814 8.88098 21.3928C8.67733 21.0031 8.57556 20.5612 8.57565 20.0671C8.57565 19.5732 8.67743 19.1313 8.88098 18.7415C9.0833 18.3529 9.37734 18.0365 9.72981 17.8281C10.0923 17.609 10.5024 17.4994 10.9602 17.4994C11.6659 17.4994 12.2604 17.7847 12.7437 18.3553L13.545 17.5307C13.2303 17.1316 12.8386 16.8208 12.4004 16.6225C11.9487 16.4138 11.4496 16.3094 10.9029 16.3093C10.2289 16.3093 9.62006 16.4711 9.07643 16.7948C8.5328 17.1184 8.10518 17.5655 7.79358 18.1362ZM0.467404 18.1362C0.155707 18.7068 -9.45658e-05 19.3504 4.30616e-08 20.0671C4.30616e-08 20.784 0.155801 21.4277 0.467404 21.9983C0.778817 22.5689 1.20799 23.0159 1.75492 23.3395C2.3018 23.6631 2.91539 23.8249 3.59569 23.8249C4.07418 23.8258 4.55006 23.7448 5.00737 23.5849C5.46516 23.4248 5.86572 23.1952 6.20905 22.8959V19.9837H3.98059V21.1357H5.03594V22.2592C4.64165 22.5097 4.18387 22.635 3.66258 22.6351C3.19829 22.6351 2.78335 22.5237 2.41777 22.301C2.06297 22.09 1.76605 21.7722 1.55947 21.3824C1.35271 20.9927 1.24938 20.5543 1.24947 20.0671C1.24947 19.5661 1.35281 19.1207 1.55947 18.731C1.76478 18.3427 2.06225 18.028 2.41777 17.823C2.78349 17.6073 3.20159 17.4995 3.67205 17.4994C4.39048 17.4994 5.00407 17.7777 5.51282 18.3345L6.29489 17.4994C5.98334 17.1097 5.59867 16.8139 5.14088 16.6121C4.68309 16.4104 4.17439 16.3095 3.61478 16.3093C2.92817 16.3093 2.30982 16.4711 1.75973 16.7948C1.20973 17.1184 0.778959 17.5655 0.467404 18.1362Z" fill="black"></path><path d="M26.0551 12.3333V15.0434H21.9961V25.0869H30.9659V22.3995H35.0249V12.3333H26.0551ZM33.8222 21.0786H29.7632V23.766H23.1987V16.3643H27.2577V13.6542H33.8222V21.0786Z" fill="black"></path></svg> 