<?xml version="1.0" encoding="UTF-8"?> <svg xmlns="http://www.w3.org/2000/svg" width="36" height="37" viewBox="0 0 36 37" fill="none"><path d="M0.167358 26.5751H3.14437V13.902H0.167358V26.5751ZM1.64989 12.24C2.58246 12.24 3.31176 11.5226 3.31176 10.626C3.31176 9.71733 2.58246 9 1.64989 9C0.729301 9 0 9.71736 0 10.626C0 11.5227 0.729301 12.24 1.64989 12.24ZM13.0562 9.03578C8.02286 9.03578 4.86637 12.4671 4.86637 17.9549C4.86637 23.4427 8.02255 26.8621 13.0562 26.8621C18.0775 26.8621 21.234 23.4427 21.234 17.9549C21.234 12.4671 18.0778 9.03578 13.0562 9.03578ZM13.0562 11.6661C16.1288 11.6661 18.0895 14.1051 18.0895 17.9549C18.0895 21.7927 16.1287 24.2317 13.0562 24.2317C9.9716 24.2317 8.02286 21.7927 8.02286 17.9549C8.02286 14.1051 9.97166 11.6661 13.0562 11.6661ZM22.4898 21.721C22.6213 24.9014 25.2277 26.8621 29.197 26.8621C33.3696 26.8621 36 24.8057 36 21.5298C36 18.9593 34.5175 17.5126 31.0144 16.7116L29.0298 16.2573C26.9136 15.7552 26.0408 15.0856 26.0408 13.9379C26.0408 12.5032 27.356 11.5467 29.3047 11.5467C31.2775 11.5467 32.6283 12.5151 32.7719 14.1292H35.713C35.6413 11.0924 33.1306 9.03587 29.3287 9.03587C25.5745 9.03587 22.9083 11.1042 22.9083 14.165C22.9083 16.6279 24.4148 18.1583 27.5949 18.8876L29.8306 19.4137C32.0066 19.9278 32.8913 20.6451 32.8913 21.8885C32.8913 23.3232 31.4446 24.3514 29.3645 24.3514C27.2602 24.3514 25.6702 23.3113 25.4789 21.7211H22.49L22.4898 21.721Z" fill="black"></path></svg> 