<?xml version="1.0" encoding="UTF-8"?> <svg xmlns="http://www.w3.org/2000/svg" width="36" height="37" viewBox="0 0 36 37" fill="none"><g clip-path="url(#clip0_917_379)"><path d="M14.3815 28.0564C14.3815 28.0564 13.041 28.8328 15.3355 29.0955C18.1151 29.4114 19.5357 29.3661 22.5989 28.7886C22.5989 28.7886 23.4043 29.2916 24.529 29.7272C17.6621 32.6584 8.98797 29.5574 14.3815 28.0564Z" fill="black"></path><path d="M13.5442 24.2314C13.5442 24.2314 12.0407 25.3399 14.3368 25.5764C17.3061 25.8815 19.651 25.9065 23.7087 25.1283C23.7087 25.1283 24.2699 25.695 25.1524 26.0049C16.8499 28.4229 7.60255 26.1956 13.5442 24.2314Z" fill="black"></path><path d="M20.6183 17.7428C22.3103 19.683 20.1738 21.429 20.1738 21.429C20.1738 21.429 24.47 19.22 22.4969 16.4538C20.6542 13.8742 19.241 12.5925 26.8913 8.17334C26.8913 8.17334 14.8828 11.1605 20.6183 17.7428Z" fill="black"></path><path d="M29.6993 30.8858C29.6993 30.8858 30.6913 31.6999 28.6068 32.3297C24.6432 33.5256 12.1098 33.8867 8.62807 32.3773C7.37647 31.835 9.72357 31.0824 10.4619 30.9245C11.2318 30.7582 11.6719 30.7892 11.6719 30.7892C10.28 29.8126 2.6752 32.7068 7.80902 33.5357C21.8097 35.7971 33.3309 32.5174 29.6993 30.8858Z" fill="black"></path><path d="M15.0267 20.2681C15.0267 20.2681 8.65136 21.7763 12.769 22.324C14.5076 22.5558 17.9734 22.5034 21.2018 22.234C23.8402 22.0123 26.4894 21.541 26.4894 21.541C26.4894 21.541 25.5591 21.9378 24.886 22.3956C18.412 24.0914 5.90547 23.3025 9.50595 21.5678C12.5509 20.1018 15.0267 20.2681 15.0267 20.2681Z" fill="black"></path><path d="M26.4643 26.6352C33.0454 23.2291 30.0026 19.9558 27.8787 20.3968C27.3581 20.5047 27.126 20.5983 27.126 20.5983C27.126 20.5983 27.3193 20.2967 27.6884 20.1662C31.8901 18.6949 35.1214 24.5055 26.332 26.8069C26.332 26.8069 26.4339 26.7163 26.4643 26.6352Z" fill="black"></path><path d="M22.4952 1.0376C22.4952 1.0376 26.14 4.66896 19.0384 10.253C13.3436 14.7323 17.7398 17.2863 19.036 20.2044C15.7119 17.2172 13.2724 14.5876 14.909 12.1402C17.3111 8.54761 23.9658 6.8058 22.4952 1.0376Z" fill="black"></path><path d="M15.674 35.8651C21.9911 36.2679 31.6916 35.6416 31.9214 32.6646C31.9214 32.6646 31.4798 33.7931 26.7007 34.6894C21.3089 35.7 14.659 35.582 10.7148 34.9344C10.7148 34.9344 11.5223 35.5999 15.674 35.8651Z" fill="black"></path></g><defs><clipPath id="clip0_917_379"><rect width="26" height="35" fill="white" transform="translate(6 1)"></rect></clipPath></defs></svg> 