<?xml version="1.0" encoding="UTF-8"?> <svg xmlns="http://www.w3.org/2000/svg" width="36" height="37" viewBox="0 0 36 37" fill="none"><g clip-path="url(#clip0_925_496)"><path d="M4.79424 23.0002C4.79385 23.4742 4.65293 23.9374 4.3893 24.3314C4.12566 24.7253 3.75115 25.0323 3.3131 25.2134C2.87505 25.3945 2.39313 25.4417 1.92826 25.349C1.4634 25.2563 1.03645 25.0278 0.701408 24.6925C0.366361 24.3572 0.138252 23.9301 0.0459177 23.4651C-0.0464168 23.0002 0.00116873 22.5183 0.182659 22.0804C0.364149 21.6425 0.671395 21.2682 1.06556 21.0049C1.45972 20.7416 1.9231 20.6011 2.39712 20.6011C2.71208 20.6011 3.02395 20.6631 3.31491 20.7837C3.60587 20.9043 3.87022 21.0811 4.09284 21.3039C4.31545 21.5267 4.49198 21.7912 4.61234 22.0822C4.73269 22.3733 4.7945 22.6852 4.79424 23.0002Z" fill="black"></path><path d="M16.1927 24.1095C16.1927 24.8084 15.855 25.1461 15.1561 25.1461H13.6247C12.9258 25.1461 12.5881 24.8084 12.5881 24.1095V17.8919C12.5881 17.0595 12.2956 16.496 11.3277 16.496C10.6187 16.5077 9.92597 16.7112 9.32327 17.085V24.1134C9.32327 24.8123 8.98559 25.15 8.28667 25.15H6.75534C6.05643 25.15 5.71875 24.8123 5.71875 24.1134V14.9274C5.71875 14.2304 6.05643 13.8908 6.75534 13.8908H7.31879C7.81549 13.8908 8.01771 14.1382 8.33183 14.7016C9.51568 13.9801 10.872 13.5908 12.2583 13.5747C15.321 13.5747 16.2005 15.1963 16.2005 17.3579L16.1927 24.1095Z" fill="black"></path><path d="M26.3754 20.7092H20.7664C20.6761 22.1738 21.4418 22.6017 23.1989 22.6017C24.0503 22.6237 24.9001 22.5171 25.7197 22.2857C26.6208 22.0893 27.1371 22.6233 27.1371 23.2987V23.7267C27.1371 24.3353 26.9114 24.7083 26.3263 24.9203C25.1589 25.2811 23.9437 25.4632 22.7218 25.4602C19.0054 25.4602 17.2031 23.5677 17.2031 19.5136C17.2031 15.4595 18.9818 13.5669 22.4744 13.5669C26.8211 13.5669 27.4964 16.4941 27.4081 19.6706C27.4081 20.346 27.0704 20.7072 26.3715 20.7072M20.7664 18.5005H23.9645C24.1609 17.2617 23.8978 16.2703 22.5235 16.2703C21.3083 16.2703 20.7664 17.0811 20.7664 18.5005Z" fill="black"></path><path d="M29.5919 12.5086C29.5919 11.8548 29.8609 11.6075 30.6736 11.3817L31.8516 11.0656C32.7841 10.8202 33.1964 11.2934 33.1964 11.9825V13.875H34.9633C35.6622 13.875 35.9999 14.2127 35.9999 14.9116V15.8363C35.9999 16.5352 35.6622 16.8729 34.9633 16.8729H33.1964V21.1802C33.1964 22.0598 33.5341 22.5545 34.6826 22.5545H34.9083C35.0351 22.5491 35.1615 22.5698 35.28 22.6151C35.3984 22.6605 35.5063 22.7296 35.597 22.8183C35.6877 22.907 35.7592 23.0133 35.8073 23.1306C35.8553 23.248 35.8788 23.374 35.8762 23.5008V24.2429C35.8843 24.5105 35.7953 24.7719 35.6257 24.979C35.4561 25.1861 35.2174 25.3249 34.9535 25.3698C34.6194 25.4318 34.2802 25.4621 33.9405 25.4601C30.7423 25.4601 29.5939 24.131 29.5939 21.4728V16.8788H28.7163C28.0174 16.8788 27.6797 16.5411 27.6797 15.8422V15.32C27.6797 14.731 27.9271 14.4424 28.5808 14.2618L29.5939 13.9909L29.5919 12.5086Z" fill="black"></path></g><defs><clipPath id="clip0_925_496"><rect width="36" height="14.4602" fill="white" transform="translate(0 11)"></rect></clipPath></defs></svg> 