<?xml version="1.0" encoding="UTF-8"?> <svg xmlns="http://www.w3.org/2000/svg" width="36" height="37" viewBox="0 0 36 37" fill="none"><g clip-path="url(#clip0_917_393)"><path d="M16.8211 1.00969C16.7437 1.01672 16.4974 1.04135 16.2757 1.05895C11.1624 1.51988 6.37301 4.27841 3.33959 8.51828C1.65044 10.8757 0.570089 13.5498 0.161877 16.3822C0.0175953 17.3709 0 17.663 0 19.0035C0 20.3441 0.0175953 20.6361 0.161877 21.6248C1.14018 28.384 5.95073 34.0629 12.4751 36.167C13.6434 36.5435 14.8751 36.8003 16.2757 36.9551C16.8211 37.0151 19.1789 37.0151 19.7243 36.9551C22.1419 36.6877 24.19 36.0896 26.21 35.0586C26.5197 34.9003 26.5795 34.8581 26.5373 34.8229C26.5091 34.8018 25.1895 33.032 23.6058 30.8927L20.7273 27.0047L17.1202 21.6671C15.1355 18.7326 13.5026 16.3329 13.4886 16.3329C13.4745 16.3294 13.4604 18.7009 13.4534 21.5967C13.4428 26.6669 13.4393 26.871 13.3759 26.9906C13.2845 27.163 13.2141 27.2334 13.0663 27.3108C12.9537 27.3671 12.8551 27.3777 12.3238 27.3777H11.7149L11.5531 27.2756C11.4475 27.2088 11.3701 27.1208 11.3173 27.0188L11.2434 26.8604L11.2504 19.8058L11.261 12.7476L11.3701 12.6103C11.4264 12.5365 11.546 12.4414 11.6305 12.3957C11.7748 12.3253 11.8311 12.3183 12.4399 12.3183C13.1578 12.3183 13.2774 12.3464 13.4639 12.5505C13.5167 12.6068 15.4698 15.5483 17.8065 19.0915C20.1431 22.6347 23.3384 27.4727 24.9079 29.8477L27.7583 34.1649L27.9026 34.0699C29.1801 33.2395 30.5314 32.0573 31.6012 30.8258C33.878 28.2116 35.3454 25.0237 35.8381 21.6248C35.9824 20.6361 36 20.3441 36 19.0035C36 17.663 35.9824 17.3709 35.8381 16.3822C34.8598 9.62308 30.0493 3.94415 23.5249 1.84007C22.3742 1.4671 21.1496 1.21024 19.7771 1.05543C19.4393 1.02024 17.1132 0.981539 16.8211 1.00969ZM24.19 11.896C24.3589 11.9805 24.4962 12.1424 24.5454 12.3112C24.5736 12.4027 24.5807 14.3591 24.5736 18.7678L24.5631 25.0941L23.4475 23.3841L22.3285 21.6741V17.0754C22.3285 14.1022 22.3425 12.4309 22.3636 12.35C22.4199 12.1529 22.5431 11.9981 22.712 11.9066C22.8563 11.8327 22.9091 11.8257 23.4616 11.8257C23.9824 11.8257 24.0739 11.8327 24.19 11.896Z" fill="black"></path></g><defs><clipPath id="clip0_917_393"><rect width="36" height="36" fill="white" transform="translate(0 1)"></rect></clipPath></defs></svg> 