<?xml version="1.0" encoding="UTF-8"?> <svg xmlns="http://www.w3.org/2000/svg" width="36" height="37" viewBox="0 0 36 37" fill="none"><path d="M17.5789 20.7719C17.7644 20.7719 17.8881 20.8338 17.9499 20.9574C18.1353 21.2356 17.7644 23.4612 21.1028 23.7393C24.4411 24.0175 26.3885 23.5539 26.6667 22.0702C26.9449 20.5865 26.2957 20.1228 21.1028 19.5664C15.9098 19.01 15.9098 16.5063 15.9098 15.6717C15.9098 14.8371 15.9098 11.1278 22.2155 11.1278C28.5213 11.1278 28.7068 14.8371 28.7995 15.4862C28.8922 16.1353 28.7995 16.3208 28.4286 16.3208H26.7594C26.5121 16.3208 26.3576 16.1662 26.2957 15.8571C26.0175 14.7444 25.4612 13.5388 22.2155 13.5388C18.9699 13.5388 18.599 14.5589 18.599 15.5789C18.599 16.599 19.619 16.7845 22.9574 17.2481C26.2957 17.7118 28.985 18.0827 29.3559 20.8647C29.7268 23.6466 27.8722 26.2431 22.7719 26.2431C17.8881 26.2431 15.4461 24.5739 15.4461 21.2356C15.4461 20.9265 15.6007 20.7719 15.9098 20.7719M33.3434 8.1604C34.3325 8.71679 34.8271 9.6132 34.8271 10.8496V26.2431C34.8271 27.3559 34.3943 28.1905 33.5288 28.7469L19.99 36.6291C19.0008 37.1236 18.0117 37.1236 17.0226 36.6291L12.4787 33.9398C11.9841 33.6926 11.9223 33.5071 12.2932 33.3835C13.0969 33.1362 13.7769 32.8271 14.3333 32.4561C14.457 32.3943 14.5806 32.3943 14.7043 32.4561L18.1353 34.4962C18.3208 34.6199 18.5063 34.6199 18.6917 34.4962L32.1378 26.7068C32.2615 26.6449 32.3233 26.4904 32.3233 26.2431V10.6642C32.3233 10.4787 32.2615 10.3551 32.1378 10.2932L18.6917 2.50376C18.5063 2.38012 18.3208 2.38012 18.1353 2.50376L4.59649 10.2932C4.47285 10.3551 4.41103 10.4787 4.41103 10.6642V26.3358C4.41103 26.5213 4.47285 26.6449 4.59649 26.7068L8.30576 28.8396C9.78947 29.6742 11.5514 29.1178 11.5514 27.4486V12.1479C11.5514 11.7769 11.7368 11.5915 12.1078 11.5915H13.5915C13.9624 11.5915 14.1479 11.7769 14.1479 12.1479V27.4486C14.1479 31.9925 9.97494 32.5489 7.00752 30.8797L3.39098 28.8396C2.46366 28.2832 2 27.4486 2 26.3358V10.6642C2 9.55138 2.49457 8.71679 3.48371 8.1604L16.6516 0.556391C17.8262 -0.185464 19.0008 -0.185464 20.1754 0.556391" fill="black"></path></svg> 