<?xml version="1.0" encoding="UTF-8"?> <svg xmlns="http://www.w3.org/2000/svg" width="36" height="37" viewBox="0 0 36 37" fill="none"><g clip-path="url(#clip0_917_392)"><path d="M0 18.6932C0.015 18.6437 0.027 18.5927 0.03375 18.5417C0.0615 18.019 0.0675 17.4902 0.12375 16.9667C0.2115 15.2717 0.777 13.6367 1.755 12.2492C2.19587 11.6526 2.7706 11.1677 3.43298 10.8336C4.09535 10.4995 4.82688 10.3254 5.56875 10.3255H17.7075C17.9438 10.3255 17.9437 10.3255 17.9437 10.0892V9.2455C17.9437 9.0715 17.8927 9.0325 17.73 9.0325H9.46725C9.32625 9.0325 9.276 8.99275 9.276 8.8465V4.7245C9.303 4.1275 9.552 3.562 9.9735 3.13825C10.5333 2.54247 11.2303 2.09265 12.0037 1.828C12.9484 1.48837 13.9304 1.26375 14.9288 1.159C16.2934 1.00319 17.6687 0.961795 19.0402 1.03525C20.5192 1.063 21.9825 1.3345 23.3723 1.83925C24.3255 2.16074 25.168 2.74586 25.8022 3.52675C26.3121 4.1829 26.5643 5.00298 26.511 5.83225C26.4772 6.52975 26.511 7.2325 26.511 7.93525V11.8277C26.511 12.592 26.511 13.3622 26.4773 14.1212C26.4718 14.9443 26.2166 15.7464 25.7455 16.4213C25.2744 17.0963 24.6095 17.6123 23.8387 17.9012C23.091 18.2074 22.2894 18.3601 21.4815 18.3505H12.8865C11.9776 18.3331 11.0818 18.5686 10.299 19.0307C9.29794 19.6599 8.58478 20.6579 8.31375 21.8087C8.15065 22.3889 8.06912 22.9889 8.0715 23.5915V27.4885C8.0715 27.7472 8.0715 27.742 7.81275 27.7472C6.879 27.7472 5.94525 27.7757 5.00025 27.7472C4.07541 27.7099 3.19329 27.348 2.50875 26.725C1.71302 26.0013 1.11975 25.0825 0.7875 24.0595C0.450766 23.1295 0.236957 22.1596 0.1515 21.1742C0.09525 20.5442 0.07275 19.9142 0.03375 19.2902C0.0264382 19.2204 0.0151701 19.1511 0 19.0825L0 18.6932Z" fill="black"></path><path d="M11.4023 5.30341C11.4046 5.61547 11.4991 5.91988 11.6741 6.17827C11.8491 6.43665 12.0967 6.63745 12.3856 6.75533C12.6746 6.87321 12.9919 6.9029 13.2977 6.84067C13.6035 6.77843 13.884 6.62704 14.1039 6.4056C14.3238 6.18416 14.4732 5.90257 14.5333 5.59634C14.5933 5.29011 14.5614 4.97296 14.4414 4.68486C14.3215 4.39676 14.119 4.15062 13.8594 3.97747C13.5997 3.80433 13.2947 3.71192 12.9826 3.71191C12.5625 3.71508 12.1607 3.88413 11.8647 4.18223C11.5687 4.48033 11.4025 4.88332 11.4023 5.30341Z" fill="black"></path><path d="M11.4023 5.30345C11.4023 5.09563 11.4433 4.88985 11.5228 4.69785C11.6023 4.50585 11.7189 4.3314 11.8658 4.18445C12.0128 4.0375 12.1872 3.92094 12.3792 3.84141C12.5712 3.76188 12.777 3.72095 12.9848 3.72095C13.1927 3.72095 13.3984 3.76188 13.5904 3.84141C13.7824 3.92094 13.9569 4.0375 14.1038 4.18445C14.2508 4.3314 14.3674 4.50585 14.4469 4.69785C14.5264 4.88985 14.5673 5.09563 14.5673 5.30345C14.5673 5.72315 14.4006 6.12567 14.1038 6.42244C13.8071 6.71922 13.4045 6.88595 12.9848 6.88595C12.5651 6.88595 12.1626 6.71922 11.8658 6.42244C11.5691 6.12567 11.4023 5.72315 11.4023 5.30345Z" fill="white"></path><path d="M36.0003 19.3007C35.9853 19.3502 35.9733 19.4012 35.9665 19.453C35.9388 19.9757 35.9328 20.5045 35.8765 21.028C35.7886 22.7228 35.2231 24.3583 34.2453 25.7455C33.805 26.3431 33.2305 26.829 32.5681 27.164C31.9057 27.4991 31.1738 27.6739 30.4315 27.6745H18.2928C18.0565 27.6745 18.0565 27.6745 18.0565 27.9107V28.7545C18.0565 28.9285 18.1075 28.9682 18.2703 28.9682H26.5338C26.674 28.9682 26.725 29.0072 26.725 29.1535V33.2755C26.6975 33.8725 26.4489 34.4379 26.0275 34.8617C25.4675 35.4576 24.7703 35.9074 23.9965 36.172C23.0538 36.5111 22.0738 36.7357 21.0775 36.841C19.7125 36.997 18.337 37.0382 16.9653 36.9647C15.4871 36.9373 14.0236 36.6657 12.634 36.1607C11.6808 35.8392 10.8382 35.2541 10.204 34.4732C9.69413 33.8171 9.44203 32.997 9.49528 32.1677C9.52903 31.4702 9.49528 30.7675 9.49528 30.0647V26.1722C9.49528 25.408 9.49528 24.6377 9.52903 23.8787C9.53434 23.0557 9.78936 22.2537 10.2604 21.5787C10.7313 20.9038 11.3961 20.3877 12.1668 20.0987C12.9145 19.7926 13.7161 19.6398 14.524 19.6495H23.1138C24.0227 19.6669 24.9185 19.4313 25.7013 18.9692C26.7036 18.3386 27.4169 17.3383 27.6865 16.1852C27.8496 15.6051 27.9311 15.0051 27.9288 14.4025V10.5055C27.9288 10.2467 27.9288 10.2527 28.1875 10.2467C29.1213 10.2467 30.055 10.219 31 10.2467C31.9251 10.2844 32.8072 10.6469 33.4915 11.2705C34.2872 11.9942 34.8805 12.9129 35.2128 13.936C35.5483 14.8696 35.7601 15.8431 35.8428 16.8317C35.899 17.4617 35.9215 18.0917 35.9613 18.7157C35.9688 18.784 35.98 18.8515 35.995 18.9182C35.9988 19.042 36.0003 19.1695 36.0003 19.3007Z" fill="black"></path><path d="M24.598 32.4941C24.5957 32.182 24.5012 31.8776 24.3262 31.6192C24.1512 31.3608 23.9036 31.16 23.6147 31.0421C23.3258 30.9243 23.0084 30.8946 22.7026 30.9568C22.3968 31.019 22.1163 31.1704 21.8964 31.3919C21.6765 31.6133 21.5271 31.8949 21.4671 32.2011C21.407 32.5073 21.4389 32.8245 21.5589 33.1126C21.6788 33.4007 21.8813 33.6468 22.141 33.82C22.4006 33.9931 22.7056 34.0855 23.0177 34.0855C23.4378 34.0824 23.8396 33.9133 24.1356 33.6152C24.4316 33.3171 24.5978 32.9141 24.598 32.4941Z" fill="black"></path><path d="M24.5986 32.4941C24.5986 32.9138 24.4319 33.3163 24.1351 33.6131C23.8383 33.9099 23.4358 34.0766 23.0161 34.0766C22.5964 34.0766 22.1939 33.9099 21.8971 33.6131C21.6003 33.3163 21.4336 32.9138 21.4336 32.4941C21.4336 32.0744 21.6003 31.6719 21.8971 31.3751C22.1939 31.0783 22.5964 30.9116 23.0161 30.9116C23.4358 30.9116 23.8383 31.0783 24.1351 31.3751C24.4319 31.6719 24.5986 32.0744 24.5986 32.4941Z" fill="white"></path></g><defs><clipPath id="clip0_917_392"><rect width="36" height="36" fill="white" transform="translate(0 1)"></rect></clipPath></defs></svg> 