<?xml version="1.0" encoding="UTF-8"?> <svg xmlns="http://www.w3.org/2000/svg" width="36" height="37" viewBox="0 0 36 37" fill="none"><g clip-path="url(#clip0_925_495)"><path d="M14.7896 17.9807C14.7896 16.2057 16.2314 14.7639 18.0064 14.7639C19.7814 14.7639 21.2232 16.2057 21.2232 17.9807C21.2232 19.7557 19.7814 21.1975 18.0064 21.1975C16.2314 21.1975 14.7896 19.7557 14.7896 17.9807ZM36 17.9807C36 20.1914 33.392 22.4278 29.1883 23.8184C28.9705 23.8888 28.7462 23.9593 28.5155 24.0298C28.5988 24.3566 28.6693 24.677 28.7334 24.991C29.1242 26.9775 29.1883 28.823 28.9128 30.3225C28.618 31.918 27.9516 33.0522 26.9904 33.6097C26.5098 33.8917 25.9395 34.0327 25.3051 34.0327C23.5621 34.0327 21.3514 32.9818 19.0445 30.9953C18.7177 30.7133 18.3973 30.4186 18.0705 30.1046C17.8206 30.3481 17.5707 30.5788 17.3208 30.7966C15.7957 32.1295 14.2257 33.1035 12.7903 33.6097C12.0406 33.8789 11.3357 34.0134 10.7077 34.0134C10.0541 34.0134 9.47739 33.8725 8.99039 33.5905C7.1513 32.5268 6.5105 29.4638 7.28587 25.3947C7.36276 24.9782 7.45888 24.5489 7.56782 24.1131C7.2282 24.017 6.90139 23.9145 6.5874 23.8055C4.67141 23.1519 3.04379 22.2804 1.88394 21.2872C0.653613 20.2363 0 19.0893 0 17.9807C0 15.8532 2.3325 13.7707 6.24778 12.4122C6.67711 12.2648 7.12567 12.1238 7.58704 11.9892C7.48451 11.5855 7.3948 11.1882 7.31791 10.7974C6.93984 8.86214 6.86935 7.08713 7.11285 5.65816C7.38199 4.10102 8.01638 2.99244 8.95835 2.44776C10.8679 1.33918 14.1168 2.4798 17.4233 5.42106C17.6219 5.60048 17.8206 5.78632 18.0256 5.97855C18.3268 5.6902 18.628 5.41465 18.9227 5.15193C20.4094 3.85752 21.9153 2.90913 23.2738 2.40931C24.754 1.86464 26.0356 1.86464 26.9712 2.4029C28.8871 3.50508 29.5215 6.88849 28.6244 11.2203C28.5732 11.483 28.5091 11.7457 28.445 12.0149C28.8423 12.1302 29.2268 12.252 29.5984 12.3801C31.4632 13.0209 33.0331 13.854 34.1481 14.7767C35.3592 15.7892 36 16.8977 36 17.9807ZM19.1022 7.07432C20.1274 8.17649 21.1527 9.45809 22.1396 10.8678C23.8377 11.028 25.4589 11.2844 26.9584 11.6304C27.016 11.3869 27.0737 11.1498 27.1185 10.9127C27.958 6.83082 27.2339 4.33171 26.2022 3.73576C25.6768 3.43459 24.8245 3.47304 23.7992 3.85111C22.6137 4.28685 21.2745 5.13911 19.9288 6.31177C19.6533 6.54886 19.3777 6.80518 19.1022 7.07432ZM9.47099 23.0045C10.4963 23.2288 11.6048 23.4082 12.7839 23.5364C12.3994 22.9341 12.0214 22.3189 11.6561 21.6909C11.2973 21.0757 10.9576 20.4542 10.6372 19.8326C10.1823 20.9091 9.78498 21.9793 9.47099 23.0045ZM11.6561 14.3474C12.015 13.7322 12.3802 13.1234 12.7583 12.5339C11.6177 12.6749 10.5219 12.8671 9.49021 13.0914C9.8042 14.1039 10.1887 15.1484 10.6372 16.2121C10.9576 15.5905 11.2973 14.9689 11.6561 14.3474ZM12.989 20.922C13.5465 21.8831 14.136 22.8187 14.7512 23.7094C15.7957 23.7735 16.885 23.8119 18.0064 23.8119C19.1342 23.8119 20.2364 23.7735 21.3001 23.6966C21.8832 22.8187 22.46 21.8896 23.0303 20.9091C23.5942 19.9351 24.1132 18.9547 24.581 17.9935C24.1132 17.0515 23.6006 16.0903 23.0303 15.1099C22.4728 14.1423 21.8896 13.2196 21.2937 12.3353C20.2236 12.252 19.1214 12.2135 18.0064 12.2135C16.9042 12.2135 15.8021 12.2584 14.7255 12.3417C14.1232 13.226 13.5336 14.1551 12.9826 15.1163C12.4315 16.0711 11.9188 17.0451 11.4511 18.0191C11.9188 18.9867 12.4315 19.9608 12.989 20.922ZM23.2609 23.5108C24.4464 23.3698 25.5742 23.1776 26.6187 22.9405C26.2983 21.9344 25.8946 20.8707 25.4076 19.7685C25.0808 20.4029 24.7284 21.0437 24.3631 21.6781C23.9979 22.3061 23.6326 22.9212 23.2609 23.5108ZM26.5418 13.1106C25.5037 12.8735 24.4016 12.6813 23.2545 12.5339C23.6262 13.117 23.9915 13.7194 24.3503 14.3346C24.7156 14.9689 25.0616 15.5969 25.3884 16.2121C25.8434 15.1484 26.2342 14.1039 26.5418 13.1106ZM15.8854 10.7269C16.5838 10.6948 17.2887 10.6756 18 10.6756C18.7241 10.6756 19.4354 10.6948 20.1467 10.7269C19.4482 9.79771 18.7369 8.93904 18.0256 8.17008C17.3015 8.94545 16.5838 9.80412 15.8854 10.7269ZM8.83019 10.5026C8.90068 10.8678 8.98398 11.2331 9.0801 11.6112C10.5732 11.2715 12.1944 11.0216 13.8925 10.8614C14.8793 9.4709 15.911 8.19571 16.9555 7.06791C16.7761 6.8949 16.5967 6.72829 16.4172 6.5745C13.2901 3.80625 10.7654 3.18468 9.73371 3.78062C9.20826 4.08179 8.81737 4.84434 8.63154 5.92088C8.42008 7.16403 8.48416 8.75321 8.83019 10.5026ZM9.75294 18.0255C9.04165 16.4748 8.44571 14.9433 7.99715 13.4759C7.56782 13.5976 7.15771 13.7258 6.76041 13.8668C3.15913 15.1227 1.54432 16.8401 1.54432 17.9871C1.54432 19.179 3.28088 21.0565 7.08722 22.3573C7.37558 22.4535 7.67035 22.5496 7.97793 22.6393C8.43289 21.1462 9.02884 19.5955 9.75294 18.0255ZM16.9939 29.0088C15.9366 27.881 14.8985 26.593 13.9053 25.1897C12.1495 25.0487 10.5219 24.8116 9.06088 24.4848C8.95835 24.8949 8.87505 25.2922 8.79815 25.6767C8.08686 29.4253 8.77252 31.6809 9.75935 32.2513C10.791 32.8472 13.2837 32.2833 16.3147 29.6304C16.5326 29.4382 16.7633 29.2267 16.9939 29.0088ZM20.1787 25.2986C19.4674 25.3306 18.7369 25.3499 18.0064 25.3499C17.2887 25.3499 16.5902 25.337 15.9046 25.3114C16.6159 26.247 17.34 27.1121 18.0705 27.9002C18.769 27.1249 19.4802 26.2598 20.1787 25.2986ZM27.2339 25.2922C27.1762 25.0038 27.1121 24.7155 27.0352 24.4143C25.5486 24.7603 23.9082 25.0102 22.1652 25.164C21.1719 26.6058 20.1531 27.8938 19.147 28.996C19.4482 29.2908 19.7558 29.5663 20.0506 29.8226C22.9405 32.3089 25.2346 32.8472 26.2278 32.2705C27.2595 31.6809 28.0157 29.2395 27.2339 25.2922ZM34.4685 17.9807C34.4685 17.3719 34.0071 16.6542 33.1677 15.9558C32.2001 15.1484 30.7903 14.4114 29.105 13.8283C28.759 13.713 28.4001 13.5976 28.0349 13.4887C27.5927 14.9177 27.0032 16.4364 26.2791 17.9871C27.0352 19.5827 27.6504 21.1142 28.099 22.5432C28.304 22.4791 28.5091 22.415 28.7077 22.3509C32.6614 21.0437 34.4685 19.1662 34.4685 17.9807Z" fill="black"></path></g><defs><clipPath id="clip0_925_495"><rect width="36" height="32.0327" fill="white" transform="translate(0 2)"></rect></clipPath></defs></svg> 