<?xml version="1.0" encoding="UTF-8"?> <svg xmlns="http://www.w3.org/2000/svg" width="36" height="37" viewBox="0 0 36 37" fill="none"><path d="M23.4522 31.7746C20.11 30.8743 17.3492 30.1124 17.3173 30.081C17.2854 30.0502 16.8831 29.3515 16.4235 28.5292L15.5879 27.0339L13.7215 27.0082L11.8551 26.9825L7.44318 22.5627C5.01662 20.1317 3.03125 18.0894 3.03125 18.0241C3.03125 17.9598 5.03586 15.8965 7.48592 13.4408L11.9406 8.97578L13.7642 8.95007L15.5879 8.92435L16.4235 7.42932C16.8831 6.60698 17.2851 5.90884 17.3169 5.87772C17.3881 5.80829 29.6919 2.53204 29.732 2.57189C29.7474 2.59761 30.4818 5.36678 31.363 8.74795L32.9651 14.8955L32.0498 16.4568L31.1345 18.0182L32.0499 19.5796L32.9653 21.1412L31.353 27.1288C29.4992 34.0128 29.6647 33.4234 29.5885 33.4113C29.5559 33.4113 26.7945 32.6656 23.4522 31.7653V31.7746ZM25.1024 28.622C25.0348 28.514 23.8541 26.4486 22.4789 24.0318C21.1037 21.6149 19.9668 19.6238 19.9523 19.6074C19.8662 19.5096 9.29677 19.3759 9.29677 19.4711C9.29677 19.5096 9.7578 20.0121 10.3213 20.5889C11.4806 21.7751 14.7927 25.2293 15.4398 25.9264L15.8668 26.3867L17.9553 26.9372C20.6776 27.6549 23.6392 28.4459 24.3514 28.6454C24.6625 28.7328 24.9864 28.8074 25.0713 28.81C25.2099 28.81 25.213 28.8123 25.1024 28.622ZM29.1748 22.5743L30.4478 18.0272L29.1748 13.4804C28.4746 10.9797 27.8742 8.90404 27.8405 8.86804C27.8068 8.83204 26.5959 10.8779 25.1495 13.4148L22.5197 18.0272L25.1495 22.6398C26.5959 25.1766 27.8068 27.2226 27.8405 27.1866C27.8742 27.1506 28.4746 25.075 29.1748 22.5743ZM19.8825 16.4291C20.0078 16.3056 25.2194 7.29252 25.1854 7.25858C25.1726 7.25858 24.2834 7.46429 23.2113 7.74767C21.3114 8.24858 16.7849 9.43349 16.1674 9.59164C15.9485 9.64821 15.6575 9.87938 15.1661 10.3898C14.7852 10.7856 13.2891 12.3284 11.8416 13.8186C10.3941 15.3087 9.20972 16.5492 9.20972 16.5751C9.20972 16.6008 11.5887 16.6008 14.4962 16.5749C18.2599 16.5414 19.8115 16.5011 19.8825 16.4291Z" fill="black"></path></svg> 