<?xml version="1.0" encoding="UTF-8"?> <svg xmlns="http://www.w3.org/2000/svg" width="36" height="37" viewBox="0 0 36 37" fill="none"><g clip-path="url(#clip0_917_399)"><path d="M0 18.0359C0 14.7719 0.804 11.7599 2.412 8.99989C4.02 6.23989 6.204 4.05589 8.964 2.44789C11.724 0.839889 14.736 0.0358887 18 0.0358887C21.264 0.0358887 24.276 0.839889 27.036 2.44789C29.796 4.05589 31.98 6.23989 33.588 8.99989C35.196 11.7599 36 14.7719 36 18.0359C36 21.2999 35.196 24.3119 33.588 27.0719C31.98 29.8319 29.796 32.0159 27.036 33.6239C24.276 35.2319 21.264 36.0359 18 36.0359C14.736 36.0359 11.724 35.2319 8.964 33.6239C6.204 32.0159 4.02 29.8319 2.412 27.0719C0.804 24.3119 0 21.2999 0 18.0359ZM1.404 18.0359C1.404 21.2759 2.262 24.2399 3.978 26.9279C5.694 29.6159 7.956 31.6319 10.764 32.9759L2.844 11.2679C1.884 13.4039 1.404 15.6599 1.404 18.0359ZM4.104 8.92789H5.184C6.336 8.92789 7.812 8.85589 9.612 8.71189C9.9 8.68789 10.11 8.78389 10.242 8.99989C10.374 9.21589 10.392 9.44389 10.296 9.68389C10.2 9.92389 10.008 10.0559 9.72 10.0799L7.812 10.2599L13.86 28.2239L17.496 17.3519L14.904 10.2599C14.328 10.1879 13.752 10.1279 13.176 10.0799C12.888 10.0559 12.696 9.92389 12.6 9.68389C12.504 9.44389 12.522 9.21589 12.654 8.99989C12.786 8.78389 12.996 8.68789 13.284 8.71189L17.64 8.92789C18.816 8.92789 20.292 8.85589 22.068 8.71189C22.356 8.68789 22.566 8.78389 22.698 8.99989C22.83 9.21589 22.848 9.44389 22.752 9.68389C22.656 9.92389 22.464 10.0559 22.176 10.0799L20.304 10.2599L26.28 28.1159L27.936 22.5719C28.8 19.7639 29.232 17.9759 29.232 17.2079C29.232 15.6719 28.764 14.1359 27.828 12.5999C27.78 12.5279 27.63 12.2759 27.378 11.8439C27.126 11.4119 26.964 11.1299 26.892 10.9979C26.82 10.8659 26.712 10.6379 26.568 10.3139C26.424 9.98989 26.328 9.70789 26.28 9.46789C26.232 9.22789 26.208 8.97589 26.208 8.71189C26.208 7.91989 26.478 7.22989 27.018 6.64189C27.558 6.05389 28.224 5.75989 29.016 5.75989C29.04 5.75989 29.076 5.76589 29.124 5.77789C29.172 5.78989 29.208 5.79589 29.232 5.79589C26.088 2.89189 22.344 1.43989 18 1.43989C15.144 1.43989 12.492 2.11189 10.044 3.45589C7.596 4.79989 5.616 6.62389 4.104 8.92789ZM13.32 33.9839C14.808 34.4159 16.368 34.6319 18 34.6319C19.92 34.6319 21.756 34.3199 23.508 33.6959L23.4 33.4799L18.288 19.4759L13.32 33.9839ZM26.352 32.3999C28.872 30.9359 30.876 28.9259 32.364 26.3699C33.852 23.8139 34.596 21.0359 34.596 18.0359C34.596 15.1559 33.924 12.5039 32.58 10.0799C32.652 10.5839 32.688 11.1479 32.688 11.7719C32.688 13.2839 32.268 15.2639 31.428 17.7119L26.352 32.3999Z" fill="black"></path></g><defs><clipPath id="clip0_917_399"><rect width="36" height="36" fill="white"></rect></clipPath></defs></svg> 